#!OML:ASF H:\Dans Jumps\Project 1\Capture day 1\Session 1\subject.ASF
:FULLY-SPECIFIED
:DEGREES
532
root 0.698656 17.6495 10.2412 4.18973 0.17823 -1.35138
lowerback -1.78652 -0.0827746 -0.740914
upperback 3.73643 -0.143961 1.5088
thorax 4.86515 -0.131157 1.96732
lowerneck -9.71093 -0.119055 -0.552516
upperneck 34.7765 -0.217066 0.486493
head 13.2863 -0.102682 0.259825
rclavicle 1.3418e-015 2.98177e-015
rhumerus -23.7406 -28.0713 -76.0706
rradius 19.2356
rwrist 48.5528
rhand -18.0031 -27.0684
rfingers 7.12502
rthumb 8.26731 -56.8867
lclavicle 1.3418e-015 2.98177e-015
lhumerus -20.4217 3.14855 84.9068
lradius 16.0937
lwrist 3.68285
lhand -25.1129 -8.39398
lfingers 7.12502
lthumb 1.40253 21.5812
rfemur -15.6704 -0.343757 19.1987
rtibia 23.8335
rfoot -11.9022 -2.08998
rtoes 9.24644
lfemur -13.366 7.04323 -18.5537
ltibia 20.4123
lfoot -9.45638 2.18156
ltoes -8.17052
533
root 0.71247 17.6558 10.2666 4.27579 0.138418 -1.5641
lowerback -1.91536 -0.0639161 -0.444355
upperback 3.70345 -0.133673 1.56015
thorax 4.90277 -0.115967 1.85465
lowerneck -9.75771 -0.111281 -0.571587
upperneck 34.8449 -0.181881 0.432198
head 13.3263 -0.0966075 0.246912
rclavicle -3.27995e-015 -1.78906e-015
rhumerus -24.3597 -27.9215 -75.9768
rradius 19.3846
rwrist 47.7881
rhand -17.8418 -27.0163
rfingers 7.12502
rthumb 8.42301 -56.8283
lclavicle -3.27995e-015 -1.78906e-015
lhumerus -20.5795 3.54438 84.7918
lradius 15.8481
lwrist 3.19371
lhand -25.0503 -8.29005
lfingers 7.12502
lthumb 1.46298 21.6847
rfemur -15.4619 -0.380621 19.3871
rtibia 23.4791
rfoot -11.9154 -1.98271
rtoes 9.45265
lfemur -13.3278 6.95344 -18.3691
ltibia 20.361
lfoot -9.46089 2.37054
ltoes -8.16973
534
root 0.724188 17.661 10.2912 4.34586 0.075377 -1.72915
lowerback -2.01766 -0.0357596 -0.217269
upperback 3.67489 -0.108105 1.60175
thorax 4.92979 -0.0955528 1.7719
lowerneck -9.82297 -0.103492 -0.60058
upperneck 34.907 -0.150092 0.395903
head 13.3678 -0.0909979 0.242364
rclavicle -8.44835e-016 1.17283e-014
rhumerus -24.9444 -27.6499 -75.9313
rradius 19.5497
rwrist 46.9786
rhand -17.6382 -26.9633
rfingers 7.12502
rthumb 8.61946 -56.7674
lclavicle -8.44835e-016 1.17283e-014
lhumerus -20.7505 3.91061 84.6742
lradius 15.6342
lwrist 2.71638
lhand -24.9656 -8.1765
lfingers 7.12502
lthumb 1.5448 21.7977
rfemur -15.2683 -0.414621 19.5276
rtibia 23.1853
rfoot -11.9693 -1.84496
rtoes 9.67988
lfemur -13.2715 6.86732 -18.2241
ltibia 20.3085
lfoot -9.46509 2.55176
ltoes -8.16699
535
root 0.733294 17.6649 10.3144 4.40331 -0.0101971 -1.84346
lowerback -2.09451 0.000385515 -0.0673036
upperback 3.64888 -0.0681724 1.63271
thorax 4.94491 -0.0706551 1.72237
lowerneck -9.88508 -0.0950201 -0.626185
upperneck 34.9435 -0.119871 0.36529
head 13.3974 -0.0849017 0.239177
rclavicle -2.5345e-015 -5.96354e-016
rhumerus -25.4927 -27.2951 -75.927
rradius 19.7195
rwrist 46.1845
rhand -17.4258 -26.9085
rfingers 7.12502
rthumb 8.82443 -56.704
lclavicle -2.5345e-015 -5.96354e-016
lhumerus -20.9339 4.21633 84.5584
lradius 15.4574
lwrist 2.27659
lhand -24.8529 -8.05943
lfingers 7.12502
lthumb 1.65363 21.9139
rfemur -15.099 -0.427893 19.619
rtibia 22.9611
rfoot -12.0623 -1.69912
rtoes 9.91647
lfemur -13.2003 6.78908 -18.1223
ltibia 20.2486
lfoot -9.46281 2.72548
ltoes -8.17124
536
root 0.739866 17.6679 10.3369 4.44973 -0.11627 -1.91011
lowerback -2.15939 0.0423554 0.011344
upperback 3.62674 -0.0168322 1.6523
thorax 4.95715 -0.0425657 1.70189
lowerneck -9.93377 -0.0854907 -0.645333
upperneck 34.9526 -0.0915145 0.340044
head 13.4119 -0.0780885 0.236638
rclavicle 5.11871e-015 1.23246e-014
rhumerus -26.0057 -26.8906 -75.9552
rradius 19.8838
rwrist 45.461
rhand -17.2219 -26.8591
rfingers 7.12502
rthumb 9.02119 -56.6462
lclavicle 5.11871e-015 1.23246e-014
lhumerus -21.1275 4.44251 84.4477
lradius 15.3127
lwrist 1.8962
lhand -24.724 -7.93131
lfingers 7.12502
lthumb 1.77809 22.041
rfemur -14.9522 -0.418719 19.6653
rtibia 22.8061
rfoot -12.1949 -1.55382
rtoes 10.1481
lfemur -13.1109 6.72585 -18.0635
ltibia 20.1758
lfoot -9.45399 2.89232
ltoes -8.18869
537
root 0.743818 17.6701 10.3582 4.49277 -0.235341 -1.93783
lowerback -2.21437 0.0863881 0.0281803
upperback 3.60546 0.0405555 1.66239
thorax 4.96457 -0.0135999 1.70669
lowerneck -9.97622 -0.0722587 -0.676635
upperneck 34.9453 -0.0630034 0.338826
head 13.4179 -0.0697089 0.245739
rclavicle -1.59028e-015 -1.39149e-015
rhumerus -26.4742 -26.4906 -76.0044
rradius 20.0198
rwrist 44.8769
rhand -17.0562 -26.8106
rfingers 7.12502
rthumb 9.1811 -56.5907
lclavicle -1.59028e-015 -1.39149e-015
lhumerus -21.3275 4.56848 84.3461
lradius 15.199
lwrist 1.60718
lhand -24.5968 -7.82522
lfingers 7.12502
lthumb 1.90102 22.1461
rfemur -14.8372 -0.378114 19.6783
rtibia 22.7153
rfoot -12.3545 -1.43124
rtoes 10.3868
lfemur -13.016 6.67495 -18.0395
ltibia 20.0926
lfoot -9.43811 3.05535
ltoes -8.21469
